# xmcd
#
# Track frame offsets: 
#        150
#        16716
#        33725
#        53864
#        71493
#        96962
#
# Disc length: 1517 seconds
#
# Revision: 2
# Processed by: cddbd v1.5.2PL0 Copyright (c) Steve Scherf et al.
# Submitted via: ExactAudioCopy v1.3
#
DISCID=4805eb06
DTITLE=IU - A Flower Bookmark 2
DYEAR=2017
DGENRE=
TTITLE0=Autumn Morning
TTITLE1=Secret Garden
TTITLE2=Sleepless Rainy Night
TTITLE3=Last Night Story
TTITLE4=By the Stream
TTITLE5=Everyday with You
EXTD=
EXTT0=
EXTT1=
EXTT2=
EXTT3=
EXTT4=
EXTT5=
PLAYORDER=
